<svg width="124" height="122" viewBox="0 0 124 122" fill="none" xmlns="http://www.w3.org/2000/svg">
<path d="M8.47217 64.8125L48.3293 110.562L106.093 101.031L124.193 45.75L84.143 0L26.379 9.53125L8.47217 64.8125ZM98.1989 49.9438L88.1864 80.4437L56.2237 85.7812L34.2734 60.4281L44.2858 29.9281L76.2486 24.7812L98.1989 49.9438Z" fill="#D9EEFF"/>
<path d="M39.8569 122L48.1364 110.372L106.093 100.841L97.6209 112.469L39.8569 122Z" fill="#5A79A9"/>
<path d="M0 76.25L8.47205 64.8125L48.1366 110.372L39.8571 122L0 76.25Z" fill="#6C8BC3"/>
<path d="M40.8198 40.7937L44.2857 29.9281L76.2484 24.7812L67.7763 36.2188L40.8198 40.7937Z" fill="#5A79A9"/>
<path d="M89.7267 61.5719L98.1987 49.9438L76.2484 24.7812L67.7764 36.2188L89.7267 61.5719Z" fill="#6C8BC3"/>
<path d="M83.3726 81.2062L89.7266 61.5718L98.1986 49.9437L88.1862 80.4437L83.3726 81.2062Z" fill="#81ACDE"/>
<path d="M18.0994 21.1594L26.3789 9.53125L8.47205 64.8125L0 76.25L18.0994 21.1594Z" fill="#81ACDE"/>
</svg>
