<svg width="142" height="151" viewBox="0 0 142 151" fill="none" xmlns="http://www.w3.org/2000/svg">
<g clip-path="url(#clip0_40_21227)">
<path d="M57.7103 138.28L114.874 130.649L137.085 79.9519L102.131 37.0686L44.9667 44.7004L22.9385 95.3971L57.7103 138.28ZM92.118 59.6005L111.415 83.4043L99.218 111.388L67.7231 115.567L48.4257 91.9447L60.6231 63.9615L92.118 59.6005Z" fill="#D9EEFF"/>
<path d="M119.79 143.368L114.875 130.649L137.085 79.9519L142 92.6715L119.79 143.368Z" fill="#5A79A9"/>
<path d="M62.6256 151L57.7102 138.28L114.874 130.649L119.79 143.368L62.6256 151Z" fill="#6C8BC3"/>
<path d="M55.1614 100.303L48.4255 91.9446L60.623 63.9614L65.5384 76.681L55.1614 100.303Z" fill="#5A79A9"/>
<path d="M97.0333 72.3202L92.1179 59.6006L60.623 63.9616L65.5384 76.6812L97.0333 72.3202Z" fill="#6C8BC3"/>
<path d="M109.595 87.7654L97.0335 72.3202L92.1182 59.6006L111.416 83.4044L109.595 87.7654Z" fill="#81ACDE"/>
<path d="M27.8539 108.117L22.9385 95.3972L57.7103 138.28L62.6257 151L27.8539 108.117Z" fill="#81ACDE"/>
<path d="M38.0487 0L26.9436 27.8014L85.5641 93.3983L38.0487 0Z" fill="#D03D5D"/>
<path d="M0 29.982L26.9436 27.8014L38.0487 0L0 29.982Z" fill="#DF7D9E"/>
<path d="M85.5641 93.3984L26.9436 27.8015L0 29.982L85.5641 93.3984Z" fill="#B0294C"/>
</g>
<defs>
<clipPath id="clip0_40_21227">
<rect width="142" height="151" fill="white"/>
</clipPath>
</defs>
</svg>
